<svg width="124" height="24" viewBox="0 0 124 24" fill="none" xmlns="http://www.w3.org/2000/svg">
<g clip-path="url(#clip0_492_47)">
<path d="M12 0C5.3828 0 0 5.38331 0 12C0 18.6167 5.3828 24 12 24C18.6172 24 24 18.6167 24 12C24 5.38331 18.6172 0 12 0ZM16.7705 12.4204L9.77053 16.9204C9.6885 16.9736 9.59377 17 9.50002 17C9.41798 17 9.33497 16.9795 9.26077 16.939C9.09961 16.8511 9 16.6831 9 16.5V7.5C9 7.31691 9.09961 7.14891 9.26077 7.06102C9.41897 6.97411 9.6172 6.97945 9.77053 7.07958L16.7705 11.5796C16.9131 11.6714 17 11.8301 17 12C17 12.1699 16.9131 12.3286 16.7705 12.4204Z" fill="#7247CA"/>
</g>
<path d="M34.468 8.608V8.044H38.128V8.608L37.072 8.728C37.064 9.224 37.056 9.728 37.048 10.24C37.048 10.744 37.048 11.252 37.048 11.764V12.496C37.048 12.92 37.048 13.376 37.048 13.864C37.056 14.352 37.064 14.848 37.072 15.352H39.496L39.832 13.696H40.672L40.552 16H34.468V15.436L35.476 15.328C35.492 14.824 35.5 14.328 35.5 13.84C35.5 13.344 35.5 12.868 35.5 12.412V11.764C35.5 11.244 35.5 10.732 35.5 10.228C35.5 9.716 35.492 9.212 35.476 8.716L34.468 8.608ZM43.3021 8.608V8.044H46.9141V8.608L45.9061 8.716C45.8981 9.212 45.8901 9.716 45.8821 10.228C45.8821 10.732 45.8821 11.244 45.8821 11.764V12.28C45.8821 12.784 45.8821 13.292 45.8821 13.804C45.8901 14.308 45.8981 14.816 45.9061 15.328L46.9141 15.436V16H43.3021V15.436L44.3101 15.328C44.3261 14.832 44.3341 14.328 44.3341 13.816C44.3341 13.304 44.3341 12.792 44.3341 12.28V11.764C44.3341 11.26 44.3341 10.756 44.3341 10.252C44.3341 9.74 44.3261 9.228 44.3101 8.716L43.3021 8.608ZM52.2049 16.204C51.7569 16.204 51.3129 16.148 50.8729 16.036C50.4329 15.924 50.0569 15.768 49.7449 15.568L49.8169 13.84H50.7409L50.9809 15.292C51.1649 15.372 51.3529 15.436 51.5449 15.484C51.7369 15.524 51.9529 15.544 52.1929 15.544C52.6889 15.544 53.0769 15.428 53.3569 15.196C53.6449 14.956 53.7889 14.64 53.7889 14.248C53.7889 13.896 53.6889 13.62 53.4889 13.42C53.2889 13.22 52.9689 13.032 52.5289 12.856L52.0369 12.652C51.3809 12.372 50.8569 12.036 50.4649 11.644C50.0809 11.252 49.8889 10.74 49.8889 10.108C49.8889 9.636 50.0089 9.232 50.2489 8.896C50.4889 8.552 50.8209 8.292 51.2449 8.116C51.6769 7.932 52.1729 7.84 52.7329 7.84C53.1489 7.84 53.5369 7.896 53.8969 8.008C54.2569 8.12 54.5729 8.272 54.8449 8.464L54.7609 10.084H53.8489L53.6089 8.692C53.3289 8.564 53.0289 8.5 52.7089 8.5C52.3089 8.5 51.9689 8.608 51.6889 8.824C51.4089 9.032 51.2689 9.332 51.2689 9.724C51.2689 10.068 51.3769 10.348 51.5929 10.564C51.8089 10.78 52.1129 10.968 52.5049 11.128L53.0209 11.344C53.8049 11.672 54.3609 12.024 54.6889 12.4C55.0249 12.776 55.1929 13.26 55.1929 13.852C55.1929 14.556 54.9249 15.124 54.3889 15.556C53.8609 15.988 53.1329 16.204 52.2049 16.204ZM57.6133 10.228L57.6853 8.044H64.4893L64.5493 10.228H63.7213L63.4693 8.68H61.8853C61.8773 9.184 61.8693 9.696 61.8613 10.216C61.8613 10.728 61.8613 11.244 61.8613 11.764V12.28C61.8613 12.784 61.8613 13.292 61.8613 13.804C61.8693 14.308 61.8773 14.812 61.8853 15.316L63.0133 15.436V16H59.1493V15.436L60.2773 15.316C60.2933 14.82 60.3013 14.32 60.3013 13.816C60.3013 13.304 60.3013 12.792 60.3013 12.28V11.764C60.3013 11.252 60.3013 10.74 60.3013 10.228C60.3013 9.708 60.2933 9.192 60.2773 8.68H58.7053L58.4533 10.228H57.6133ZM67.1793 8.608V8.044H73.2273L73.3113 10.144H72.4713L72.2193 8.68H69.7833C69.7753 9.184 69.7673 9.688 69.7593 10.192C69.7593 10.688 69.7593 11.156 69.7593 11.596H71.3073L71.4633 10.552H72.0873V13.264H71.4633L71.3193 12.232H69.7593C69.7593 12.808 69.7593 13.352 69.7593 13.864C69.7673 14.368 69.7753 14.868 69.7833 15.364H72.4593L72.7113 13.9H73.5513L73.4673 16H67.1793V15.436L68.1873 15.328C68.2033 14.832 68.2113 14.328 68.2113 13.816C68.2113 13.304 68.2113 12.792 68.2113 12.28V11.764C68.2113 11.26 68.2113 10.756 68.2113 10.252C68.2113 9.74 68.2033 9.228 68.1873 8.716L67.1793 8.608ZM81.1548 8.608V8.044H84.1788V8.608L83.1588 8.764V16.048H82.4508L77.9268 9.832V15.268L79.2468 15.436V16H76.2228V15.436L77.2428 15.292V8.884L77.0988 8.692L76.2588 8.608V8.044H78.5268L82.4748 13.468V8.764L81.1548 8.608ZM96.4558 8.608V8.044H99.4798V8.608L98.4598 8.764V16.048H97.7518L93.2278 9.832V15.268L94.5478 15.436V16H91.5238V15.436L92.5438 15.292V8.884L92.3998 8.692L91.5598 8.608V8.044H93.8278L97.7758 13.468V8.764L96.4558 8.608ZM105.815 16.204C105.335 16.204 104.871 16.116 104.423 15.94C103.975 15.764 103.571 15.5 103.211 15.148C102.859 14.796 102.579 14.36 102.371 13.84C102.171 13.32 102.071 12.712 102.071 12.016C102.071 11.344 102.175 10.748 102.383 10.228C102.591 9.708 102.871 9.272 103.223 8.92C103.575 8.56 103.975 8.292 104.423 8.116C104.871 7.932 105.335 7.84 105.815 7.84C106.295 7.84 106.755 7.928 107.195 8.104C107.643 8.28 108.043 8.544 108.395 8.896C108.747 9.24 109.027 9.676 109.235 10.204C109.443 10.724 109.547 11.328 109.547 12.016C109.547 12.688 109.443 13.284 109.235 13.804C109.035 14.324 108.755 14.764 108.395 15.124C108.043 15.476 107.643 15.744 107.195 15.928C106.755 16.112 106.295 16.204 105.815 16.204ZM105.815 15.556C106.295 15.556 106.683 15.392 106.979 15.064C107.275 14.736 107.491 14.304 107.627 13.768C107.771 13.232 107.843 12.648 107.843 12.016C107.843 11.384 107.771 10.8 107.627 10.264C107.491 9.728 107.275 9.296 106.979 8.968C106.683 8.64 106.295 8.476 105.815 8.476C105.335 8.476 104.943 8.64 104.639 8.968C104.335 9.296 104.111 9.728 103.967 10.264C103.831 10.8 103.763 11.384 103.763 12.016C103.763 12.648 103.831 13.232 103.967 13.768C104.111 14.304 104.335 14.736 104.639 15.064C104.943 15.392 105.335 15.556 105.815 15.556ZM120.572 8.608V8.044H123.212V8.608L122.24 8.764L120.164 16.048H119.336L117.44 10.192L115.628 16.048H114.8L112.64 8.704L111.764 8.608V8.044H115.256V8.608L114.26 8.728L115.616 13.924L117.26 8.728L116.216 8.608V8.044H119.636V8.608L118.508 8.74L120.104 13.996L121.556 8.752L120.572 8.608Z" fill="#7247CA"/>
<defs>
<clipPath id="clip0_492_47">
<rect width="24" height="24" fill="white"/>
</clipPath>
</defs>
</svg>
